<svg width="156" height="28" viewBox="0 0 156 28" fill="none" xmlns="http://www.w3.org/2000/svg">
<g filter="url(#filter0_b_1_414)">
<rect width="156" height="28" rx="14" fill="black" fill-opacity="0.4"/>
<rect width="156" height="28" rx="14" fill="#C25F30" fill-opacity="0.1"/>
<rect x="0.25" y="0.25" width="155.5" height="27.5" rx="13.75" stroke="#C25F30" stroke-width="0.5"/>
<path d="M13.298 19V8.81818H16.7383C17.5371 8.81818 18.19 8.96236 18.6971 9.25071C19.2076 9.53575 19.5854 9.92188 19.8307 10.4091C20.0759 10.8963 20.1986 11.4399 20.1986 12.0398C20.1986 12.6397 20.0759 13.1849 19.8307 13.6754C19.5887 14.166 19.2142 14.5571 18.7071 14.8487C18.2 15.1371 17.5504 15.2812 16.7582 15.2812H14.2923V14.1875H16.7184C17.2653 14.1875 17.7045 14.093 18.0359 13.9041C18.3674 13.7152 18.6077 13.46 18.7568 13.1385C18.9093 12.8137 18.9855 12.4474 18.9855 12.0398C18.9855 11.6321 18.9093 11.2675 18.7568 10.946C18.6077 10.6245 18.3657 10.3726 18.0309 10.1903C17.6962 10.0047 17.2521 9.91193 16.6986 9.91193H14.5309V19H13.298ZM24.7253 19.1591C23.9895 19.1591 23.3548 18.9967 22.8212 18.6719C22.2909 18.3438 21.8815 17.8864 21.5932 17.2997C21.3082 16.7098 21.1656 16.0237 21.1656 15.2415C21.1656 14.4593 21.3082 13.7699 21.5932 13.1733C21.8815 12.5734 22.2826 12.1061 22.7963 11.7713C23.3134 11.4332 23.9166 11.2642 24.606 11.2642C25.0037 11.2642 25.3965 11.3305 25.7842 11.4631C26.172 11.5956 26.525 11.8111 26.8432 12.1094C27.1614 12.4044 27.4149 12.7955 27.6038 13.2827C27.7928 13.7699 27.8872 14.3698 27.8872 15.0824V15.5795H22.0009V14.5653H26.694C26.694 14.1345 26.6079 13.75 26.4355 13.4119C26.2665 13.0739 26.0245 12.8071 25.7097 12.6115C25.3981 12.416 25.0302 12.3182 24.606 12.3182C24.1386 12.3182 23.7343 12.4342 23.3929 12.6662C23.0548 12.8949 22.7947 13.1932 22.6124 13.5611C22.4301 13.929 22.3389 14.3234 22.3389 14.7443V15.4205C22.3389 15.9972 22.4384 16.486 22.6372 16.8871C22.8394 17.2848 23.1195 17.5881 23.4774 17.7969C23.8354 18.0024 24.2513 18.1051 24.7253 18.1051C25.0335 18.1051 25.3119 18.062 25.5605 17.9759C25.8124 17.8864 26.0295 17.7538 26.2118 17.5781C26.3941 17.3991 26.535 17.1771 26.6344 16.9119L27.7679 17.2301C27.6486 17.6146 27.4481 17.9527 27.1663 18.2443C26.8846 18.5327 26.5366 18.758 26.1223 18.9205C25.708 19.0795 25.2423 19.1591 24.7253 19.1591ZM30.4253 14.4062V19H29.252V11.3636H30.3856V12.5568H30.485C30.664 12.169 30.9357 11.8575 31.3003 11.6222C31.6649 11.3835 32.1356 11.2642 32.7123 11.2642C33.2293 11.2642 33.6817 11.3703 34.0695 11.5824C34.4573 11.7912 34.7589 12.1094 34.9743 12.5369C35.1898 12.9612 35.2975 13.4981 35.2975 14.1477V19H34.1242V14.2273C34.1242 13.6274 33.9684 13.16 33.6569 12.8253C33.3453 12.4872 32.9177 12.3182 32.3742 12.3182C31.9997 12.3182 31.6649 12.3994 31.3699 12.5618C31.0783 12.7242 30.8479 12.9612 30.6789 13.2727C30.5098 13.5843 30.4253 13.9621 30.4253 14.4062ZM39.905 19.1591C39.2686 19.1591 38.7069 18.9983 38.2196 18.6768C37.7324 18.352 37.3513 17.8946 37.0762 17.3047C36.8011 16.7114 36.6635 16.0104 36.6635 15.2017C36.6635 14.3996 36.8011 13.7036 37.0762 13.1136C37.3513 12.5237 37.7341 12.0679 38.2246 11.7464C38.7151 11.425 39.2819 11.2642 39.9249 11.2642C40.4221 11.2642 40.8148 11.3471 41.1032 11.5128C41.3948 11.6752 41.6169 11.8608 41.7694 12.0696C41.9251 12.2751 42.0461 12.4441 42.1323 12.5767H42.2317V8.81818H43.405V19H42.2715V17.8267H42.1323C42.0461 17.9659 41.9235 18.1416 41.7644 18.3537C41.6053 18.5625 41.3783 18.7498 41.0833 18.9155C40.7883 19.0779 40.3955 19.1591 39.905 19.1591ZM40.0641 18.1051C40.5347 18.1051 40.9325 17.9825 41.2573 17.7372C41.5821 17.4886 41.829 17.1456 41.998 16.7081C42.1671 16.2673 42.2516 15.7585 42.2516 15.1818C42.2516 14.6117 42.1687 14.1129 42.003 13.6854C41.8373 13.2545 41.592 12.9197 41.2672 12.6811C40.9424 12.4392 40.5414 12.3182 40.0641 12.3182C39.5669 12.3182 39.1526 12.4458 38.8212 12.701C38.4931 12.9529 38.2462 13.2959 38.0804 13.7301C37.918 14.161 37.8368 14.6449 37.8368 15.1818C37.8368 15.7254 37.9197 16.2192 38.0854 16.6634C38.2544 17.1042 38.503 17.4555 38.8311 17.7173C39.1626 17.9759 39.5736 18.1051 40.0641 18.1051ZM45.2968 19V11.3636H46.4701V19H45.2968ZM45.8934 10.0909C45.6647 10.0909 45.4675 10.013 45.3018 9.85724C45.1394 9.70147 45.0582 9.5142 45.0582 9.29545C45.0582 9.0767 45.1394 8.88944 45.3018 8.73366C45.4675 8.57789 45.6647 8.5 45.8934 8.5C46.1221 8.5 46.3176 8.57789 46.48 8.73366C46.6458 8.88944 46.7286 9.0767 46.7286 9.29545C46.7286 9.5142 46.6458 9.70147 46.48 9.85724C46.3176 10.013 46.1221 10.0909 45.8934 10.0909ZM49.3724 14.4062V19H48.1991V11.3636H49.3326V12.5568H49.432C49.611 12.169 49.8828 11.8575 50.2474 11.6222C50.6119 11.3835 51.0826 11.2642 51.6593 11.2642C52.1763 11.2642 52.6287 11.3703 53.0165 11.5824C53.4043 11.7912 53.7059 12.1094 53.9214 12.5369C54.1368 12.9612 54.2445 13.4981 54.2445 14.1477V19H53.0712V14.2273C53.0712 13.6274 52.9154 13.16 52.6039 12.8253C52.2923 12.4872 51.8648 12.3182 51.3212 12.3182C50.9467 12.3182 50.6119 12.3994 50.317 12.5618C50.0253 12.7242 49.7949 12.9612 49.6259 13.2727C49.4569 13.5843 49.3724 13.9621 49.3724 14.4062ZM59.0509 22.0227C58.4841 22.0227 57.9969 21.9498 57.5893 21.804C57.1816 21.6615 56.8419 21.4725 56.5701 21.2372C56.3016 21.0052 56.0878 20.7566 55.9287 20.4915L56.8634 19.8352C56.9695 19.9744 57.1037 20.1335 57.2661 20.3125C57.4285 20.4948 57.6506 20.6522 57.9323 20.7848C58.2173 20.9207 58.5902 20.9886 59.0509 20.9886C59.6674 20.9886 60.1761 20.8395 60.5772 20.5412C60.9782 20.2429 61.1787 19.7756 61.1787 19.1392V17.5881H61.0793C60.9931 17.7273 60.8705 17.8996 60.7114 18.1051C60.5556 18.3073 60.3303 18.4879 60.0353 18.647C59.7436 18.8028 59.3492 18.8807 58.852 18.8807C58.2356 18.8807 57.6821 18.7348 57.1915 18.4432C56.7043 18.1515 56.3182 17.7273 56.0331 17.1705C55.7514 16.6136 55.6106 15.9375 55.6106 15.142C55.6106 14.3598 55.7481 13.6787 56.0232 13.0987C56.2983 12.5154 56.6811 12.0646 57.1716 11.7464C57.6622 11.425 58.2289 11.2642 58.8719 11.2642C59.3691 11.2642 59.7635 11.3471 60.0552 11.5128C60.3501 11.6752 60.5755 11.8608 60.7313 12.0696C60.8904 12.2751 61.013 12.4441 61.0992 12.5767H61.2185V11.3636H62.352V19.2188C62.352 19.875 62.2029 20.4086 61.9046 20.8196C61.6096 21.2339 61.2119 21.5372 60.7114 21.7294C60.2143 21.925 59.6607 22.0227 59.0509 22.0227ZM59.0111 17.8267C59.4818 17.8267 59.8795 17.719 60.2043 17.5036C60.5291 17.2881 60.776 16.9782 60.9451 16.5739C61.1141 16.1695 61.1986 15.6856 61.1986 15.1222C61.1986 14.572 61.1158 14.0864 60.95 13.6655C60.7843 13.2446 60.5391 12.9148 60.2143 12.6761C59.8894 12.4375 59.4884 12.3182 59.0111 12.3182C58.514 12.3182 58.0997 12.4441 57.7682 12.696C57.4401 12.9479 57.1932 13.286 57.0275 13.7102C56.8651 14.1345 56.7839 14.6051 56.7839 15.1222C56.7839 15.6525 56.8667 16.1214 57.0324 16.5291C57.2015 16.9335 57.45 17.2517 57.7782 17.4837C58.1096 17.7124 58.5206 17.8267 59.0111 17.8267ZM68.174 19H66.8814L70.62 8.81818H71.8927L75.6314 19H74.3387L71.2961 10.429H71.2166L68.174 19ZM68.6512 15.0227H73.8615V16.1165H68.6512V15.0227ZM76.6382 21.8636V11.3636H77.7717V12.5767H77.9109C77.9971 12.4441 78.1164 12.2751 78.2689 12.0696C78.4247 11.8608 78.6467 11.6752 78.9351 11.5128C79.2267 11.3471 79.6212 11.2642 80.1183 11.2642C80.7613 11.2642 81.3281 11.425 81.8186 11.7464C82.3091 12.0679 82.6919 12.5237 82.967 13.1136C83.2421 13.7036 83.3797 14.3996 83.3797 15.2017C83.3797 16.0104 83.2421 16.7114 82.967 17.3047C82.6919 17.8946 82.3108 18.352 81.8236 18.6768C81.3364 18.9983 80.7746 19.1591 80.1382 19.1591C79.6477 19.1591 79.2549 19.0779 78.9599 18.9155C78.665 18.7498 78.4379 18.5625 78.2788 18.3537C78.1197 18.1416 77.9971 17.9659 77.9109 17.8267H77.8115V21.8636H76.6382ZM77.7916 15.1818C77.7916 15.7585 77.8761 16.2673 78.0452 16.7081C78.2142 17.1456 78.4611 17.4886 78.7859 17.7372C79.1107 17.9825 79.5085 18.1051 79.9791 18.1051C80.4696 18.1051 80.879 17.9759 81.2071 17.7173C81.5385 17.4555 81.7871 17.1042 81.9528 16.6634C82.1219 16.2192 82.2064 15.7254 82.2064 15.1818C82.2064 14.6449 82.1235 14.161 81.9578 13.7301C81.7954 13.2959 81.5485 12.9529 81.217 12.701C80.8889 12.4458 80.4763 12.3182 79.9791 12.3182C79.5018 12.3182 79.1008 12.4392 78.776 12.6811C78.4512 12.9197 78.2059 13.2545 78.0402 13.6854C77.8745 14.1129 77.7916 14.6117 77.7916 15.1818ZM84.7495 21.8636V11.3636H85.883V12.5767H86.0222C86.1084 12.4441 86.2277 12.2751 86.3801 12.0696C86.5359 11.8608 86.758 11.6752 87.0463 11.5128C87.338 11.3471 87.7324 11.2642 88.2296 11.2642C88.8726 11.2642 89.4393 11.425 89.9299 11.7464C90.4204 12.0679 90.8032 12.5237 91.0783 13.1136C91.3534 13.7036 91.4909 14.3996 91.4909 15.2017C91.4909 16.0104 91.3534 16.7114 91.0783 17.3047C90.8032 17.8946 90.422 18.352 89.9348 18.6768C89.4476 18.9983 88.8858 19.1591 88.2495 19.1591C87.7589 19.1591 87.3662 19.0779 87.0712 18.9155C86.7762 18.7498 86.5492 18.5625 86.3901 18.3537C86.231 18.1416 86.1084 17.9659 86.0222 17.8267H85.9227V21.8636H84.7495ZM85.9029 15.1818C85.9029 15.7585 85.9874 16.2673 86.1564 16.7081C86.3254 17.1456 86.5724 17.4886 86.8972 17.7372C87.222 17.9825 87.6197 18.1051 88.0904 18.1051C88.5809 18.1051 88.9902 17.9759 89.3183 17.7173C89.6498 17.4555 89.8984 17.1042 90.0641 16.6634C90.2331 16.2192 90.3176 15.7254 90.3176 15.1818C90.3176 14.6449 90.2348 14.161 90.0691 13.7301C89.9067 13.2959 89.6597 12.9529 89.3283 12.701C89.0002 12.4458 88.5875 12.3182 88.0904 12.3182C87.6131 12.3182 87.212 12.4392 86.8872 12.6811C86.5624 12.9197 86.3172 13.2545 86.1514 13.6854C85.9857 14.1129 85.9029 14.6117 85.9029 15.1818ZM92.8607 19V11.3636H93.9942V12.517H94.0738C94.213 12.1392 94.4649 11.8326 94.8294 11.5973C95.194 11.362 95.605 11.2443 96.0624 11.2443C96.1486 11.2443 96.2563 11.246 96.3856 11.2493C96.5148 11.2526 96.6126 11.2576 96.6789 11.2642V12.4574C96.6391 12.4474 96.548 12.4325 96.4054 12.4126C96.2662 12.3894 96.1187 12.3778 95.963 12.3778C95.5918 12.3778 95.2603 12.4557 94.9687 12.6115C94.6803 12.764 94.4516 12.9761 94.2826 13.2479C94.1169 13.5163 94.034 13.8229 94.034 14.1676V19H92.8607ZM100.52 19.1591C99.8301 19.1591 99.2253 18.995 98.7049 18.6669C98.1879 18.3388 97.7835 17.8797 97.4918 17.2898C97.2035 16.6998 97.0593 16.0104 97.0593 15.2216C97.0593 14.4261 97.2035 13.7318 97.4918 13.1385C97.7835 12.5452 98.1879 12.0845 98.7049 11.7564C99.2253 11.4283 99.8301 11.2642 100.52 11.2642C101.209 11.2642 101.812 11.4283 102.329 11.7564C102.85 12.0845 103.254 12.5452 103.542 13.1385C103.834 13.7318 103.98 14.4261 103.98 15.2216C103.98 16.0104 103.834 16.6998 103.542 17.2898C103.254 17.8797 102.85 18.3388 102.329 18.6669C101.812 18.995 101.209 19.1591 100.52 19.1591ZM100.52 18.1051C101.043 18.1051 101.474 17.9709 101.812 17.7024C102.15 17.4339 102.4 17.081 102.563 16.6435C102.725 16.206 102.806 15.732 102.806 15.2216C102.806 14.7112 102.725 14.2356 102.563 13.7947C102.4 13.3539 102.15 12.9976 101.812 12.7259C101.474 12.4541 101.043 12.3182 100.52 12.3182C99.9959 12.3182 99.565 12.4541 99.2269 12.7259C98.8889 12.9976 98.6386 13.3539 98.4762 13.7947C98.3138 14.2356 98.2326 14.7112 98.2326 15.2216C98.2326 15.732 98.3138 16.206 98.4762 16.6435C98.6386 17.081 98.8889 17.4339 99.2269 17.7024C99.565 17.9709 99.9959 18.1051 100.52 18.1051ZM111.322 11.3636L108.498 19H107.305L104.481 11.3636H105.753L107.861 17.4489H107.941L110.049 11.3636H111.322ZM114.465 19.179C113.981 19.179 113.542 19.0878 113.148 18.9055C112.753 18.7199 112.44 18.4531 112.208 18.1051C111.976 17.7538 111.86 17.3295 111.86 16.8324C111.86 16.3949 111.946 16.0402 112.118 15.7685C112.291 15.4934 112.521 15.2779 112.81 15.1222C113.098 14.9664 113.416 14.8504 113.764 14.7741C114.115 14.6946 114.468 14.6316 114.823 14.5852C115.287 14.5256 115.663 14.4808 115.952 14.451C116.243 14.4179 116.455 14.3632 116.588 14.2869C116.724 14.2107 116.792 14.0781 116.792 13.8892V13.8494C116.792 13.3589 116.658 12.9777 116.389 12.706C116.124 12.4342 115.721 12.2983 115.181 12.2983C114.621 12.2983 114.182 12.4209 113.863 12.6662C113.545 12.9115 113.322 13.1733 113.192 13.4517L112.079 13.054C112.278 12.59 112.543 12.2287 112.874 11.9702C113.209 11.7083 113.573 11.526 113.968 11.4233C114.366 11.3172 114.757 11.2642 115.141 11.2642C115.386 11.2642 115.668 11.294 115.986 11.3537C116.308 11.41 116.618 11.5277 116.916 11.7067C117.218 11.8857 117.468 12.1558 117.667 12.517C117.866 12.8783 117.965 13.3622 117.965 13.9688V19H116.792V17.9659H116.732C116.653 18.1316 116.52 18.3089 116.334 18.4979C116.149 18.6868 115.902 18.8475 115.594 18.9801C115.285 19.1127 114.909 19.179 114.465 19.179ZM114.644 18.125C115.108 18.125 115.499 18.0339 115.817 17.8516C116.139 17.6693 116.381 17.4339 116.543 17.1456C116.709 16.8572 116.792 16.554 116.792 16.2358V15.1619C116.742 15.2216 116.633 15.2763 116.464 15.326C116.298 15.3724 116.106 15.4138 115.887 15.4503C115.671 15.4834 115.461 15.5133 115.256 15.5398C115.053 15.563 114.889 15.5829 114.763 15.5994C114.458 15.6392 114.173 15.7038 113.908 15.7933C113.646 15.8795 113.434 16.0104 113.272 16.1861C113.113 16.3584 113.033 16.5937 113.033 16.892C113.033 17.2997 113.184 17.608 113.486 17.8168C113.791 18.0223 114.177 18.125 114.644 18.125ZM120.86 8.81818V19H119.687V8.81818H120.86Z" fill="white"/>
<path d="M132 12L136 16L140 12" stroke="white" stroke-width="0.533333" stroke-linecap="round" stroke-linejoin="round"/>
</g>
<defs>
<filter id="filter0_b_1_414" x="-5" y="-5" width="166" height="38" filterUnits="userSpaceOnUse" color-interpolation-filters="sRGB">
<feFlood flood-opacity="0" result="BackgroundImageFix"/>
<feGaussianBlur in="BackgroundImageFix" stdDeviation="2.5"/>
<feComposite in2="SourceAlpha" operator="in" result="effect1_backgroundBlur_1_414"/>
<feBlend mode="normal" in="SourceGraphic" in2="effect1_backgroundBlur_1_414" result="shape"/>
</filter>
</defs>
</svg>
